<mxfile host="app.diagrams.net" modified="2023-02-28T12:37:18.783Z" agent="5.0 (Windows NT 10.0; Win64; x64) AppleWebKit/537.36 (KHTML, like Gecko) Chrome/109.0.0.0 Safari/537.36" etag="bOpw3n7jQ3YxExQW91lo" version="20.8.23" type="github">
  <diagram name="Página-1" id="DnmdfgA8noA33Kx1m2ER">
    <mxGraphModel dx="1434" dy="739" grid="1" gridSize="10" guides="1" tooltips="1" connect="1" arrows="1" fold="1" page="1" pageScale="1" pageWidth="827" pageHeight="1169" math="0" shadow="0">
      <root>
        <mxCell id="0" />
        <mxCell id="1" parent="0" />
        <UserObject label="" link="https://app.diagrams.net/" id="YSaneCu1WPvWlIgD27mN-1">
          <mxCell style="ellipse;whiteSpace=wrap;html=1;aspect=fixed;" parent="1" vertex="1">
            <mxGeometry x="180" y="100" width="440" height="440" as="geometry" />
          </mxCell>
        </UserObject>
        <mxCell id="YSaneCu1WPvWlIgD27mN-2" value="" style="ellipse;whiteSpace=wrap;html=1;aspect=fixed;" parent="1" vertex="1">
          <mxGeometry x="277" y="190" width="240" height="240" as="geometry" />
        </mxCell>
        <mxCell id="YSaneCu1WPvWlIgD27mN-3" value="&lt;font style=&quot;font-size: 22px;&quot;&gt;Saque&lt;/font&gt;" style="text;whiteSpace=wrap;html=1;align=center;" parent="1" vertex="1">
          <mxGeometry x="345" y="140" width="110" height="50" as="geometry" />
        </mxCell>
        <mxCell id="YSaneCu1WPvWlIgD27mN-4" value="&lt;span style=&quot;font-size: 22px;&quot;&gt;Deposito&lt;br&gt;&lt;br&gt;&lt;/span&gt;" style="text;whiteSpace=wrap;html=1;align=center;" parent="1" vertex="1">
          <mxGeometry x="510" y="295" width="110" height="50" as="geometry" />
        </mxCell>
        <mxCell id="YSaneCu1WPvWlIgD27mN-5" value="&lt;span style=&quot;font-size: 22px;&quot;&gt;Transação&lt;br&gt;&lt;/span&gt;" style="text;whiteSpace=wrap;html=1;align=center;" parent="1" vertex="1">
          <mxGeometry x="345" y="460" width="110" height="50" as="geometry" />
        </mxCell>
        <mxCell id="YSaneCu1WPvWlIgD27mN-6" value="&lt;span style=&quot;font-size: 22px;&quot;&gt;Extrato&lt;br&gt;&lt;/span&gt;" style="text;whiteSpace=wrap;html=1;align=center;" parent="1" vertex="1">
          <mxGeometry x="180" y="295" width="110" height="50" as="geometry" />
        </mxCell>
        <mxCell id="YSaneCu1WPvWlIgD27mN-7" value="&lt;span style=&quot;font-size: 29px;&quot;&gt;-Agencia&lt;br&gt;&lt;div style=&quot;text-align: left;&quot;&gt;&lt;span style=&quot;background-color: initial;&quot;&gt;-Tipo&lt;/span&gt;&lt;/div&gt;&lt;div style=&quot;text-align: left;&quot;&gt;&lt;span style=&quot;background-color: initial;&quot;&gt;-Valor&lt;/span&gt;&lt;/div&gt;&lt;div style=&quot;text-align: left;&quot;&gt;&lt;span style=&quot;background-color: initial;&quot;&gt;-Conta&lt;/span&gt;&lt;/div&gt;&lt;/span&gt;" style="text;whiteSpace=wrap;html=1;align=center;" parent="1" vertex="1">
          <mxGeometry x="345" y="230" width="127.5" height="150" as="geometry" />
        </mxCell>
      </root>
    </mxGraphModel>
  </diagram>
</mxfile>
